HIERARCHY
ROOT hip
{
	OFFSET 0.000000 0.000000 0.000000 
	CHANNELS 6 Xposition Yposition Zposition Xrotation Zrotation Yrotation
	JOINT abdomen
	{
		OFFSET 0.000000 3.402643 0.000000 
		CHANNELS 3 Xrotation Zrotation Yrotation
		JOINT chest
		{
			OFFSET 0.000000 8.438565 -0.680529 
			CHANNELS 3 Xrotation Zrotation Yrotation
			JOINT neck
			{
				OFFSET 0.000000 10.207942 -0.272212 
				CHANNELS 3 Xrotation Zrotation Yrotation
				JOINT head
				{
					OFFSET 0.000000 3.130431 0.000000 
					CHANNELS 3 Xrotation Zrotation Yrotation
					End Site
					{
						OFFSET 0.000000 3.130435 0.000000 
					}
				}
			}
			JOINT lCollar
			{
				OFFSET 3.470700 6.669187 -0.816635 
				CHANNELS 3 Yrotation Zrotation Xrotation
				JOINT lShldr
				{
					OFFSET 3.198488 0.000000 0.000000 
					CHANNELS 3 Zrotation Yrotation Xrotation
					JOINT lForeArm
					{
						OFFSET 10.139888 0.000000 0.000000 
						CHANNELS 3 Yrotation Zrotation Xrotation
						JOINT lHand
						{
							OFFSET 8.370511 0.000000 0.000000 
							CHANNELS 3 Zrotation Yrotation Xrotation
							End Site
							{
								OFFSET 4.083176 0.000000 0.000000 
							}
						}
					}
				}
			}
			JOINT rCollar
			{
				OFFSET -3.470700 6.669187 -0.816635 
				CHANNELS 3 Yrotation Zrotation Xrotation
				JOINT rShldr
				{
					OFFSET -3.198488 0.000000 0.000000 
					CHANNELS 3 Zrotation Yrotation Xrotation
					JOINT rForeArm
					{
						OFFSET -10.139888 0.000000 0.000000 
						CHANNELS 3 Yrotation Zrotation Xrotation
						JOINT rHand
						{
							OFFSET -8.370511 0.000000 0.000000 
							CHANNELS 3 Zrotation Yrotation Xrotation
							End Site
							{
								OFFSET -4.083176 0.000000 0.000000 
							}
						}
					}
				}
			}
		}
	}
	JOINT lThigh
	{
		OFFSET 5.308129 -1.633274 1.361059 
		CHANNELS 3 Xrotation Zrotation Yrotation
		JOINT lShin
		{
			OFFSET -2.041588 -20.007561 0.000000 
			CHANNELS 3 Xrotation Zrotation Yrotation
			JOINT lFoot
			{
				OFFSET 0.000000 -19.190928 -1.224953 
				CHANNELS 3 Xrotation Yrotation Zrotation
				End Site
				{
					OFFSET 0.000000 -2.449906 4.627600 
				}
			}
		}
	}
	JOINT rThigh
	{
		OFFSET -5.308129 -1.633274 1.361059 
		CHANNELS 3 Xrotation Zrotation Yrotation
		JOINT rShin
		{
			OFFSET 2.041588 -20.007561 0.000000 
			CHANNELS 3 Xrotation Zrotation Yrotation
			JOINT rFoot
			{
				OFFSET 0.000000 -19.190928 -1.224953 
				CHANNELS 3 Xrotation Yrotation Zrotation
				End Site
				{
					OFFSET 0.000000 -2.449906 4.627600 
				}
			}
		}
	}
}
MOTION
Frames: 8
Frame Time: 0.016667
-53.207203 59.193336 104.752510 -5.275830 7.176820 -165.143005 -14.638700 1.563660 -5.047260 14.965600 5.374850 -2.507320 -3.584156 11.550087 -8.939604 3.575850 6.807230 -1.232550 2.000000 -2.000000 0.000000 -10.905400 -71.913200 140.638000 47.715302 -0.306834 0.101200 0.044635 -0.000794 -137.205002 -2.000000 2.000000 0.000000 57.549400 13.878300 167.085999 -106.514000 0.178762 0.111959 179.906006 179.897003 7.677970 -17.208668 0.957047 13.658157 8.790933 1.220162 1.308846 -3.070451 -6.102459 -0.785591 -54.583954 6.070033 8.228893 101.052116 2.993991 -4.949512 -15.942852 8.891670 3.902250 
-53.702724 59.463322 104.637825 -5.247550 7.284130 -165.822998 -14.518700 1.437660 -4.716400 14.950700 4.830410 -2.319220 -3.058299 10.925056 -8.493627 3.840850 6.484600 -1.278410 2.000000 -2.000000 0.000000 0.538375 -73.686501 131.559998 42.861801 -0.315062 0.093056 0.044668 -0.003364 -138.123001 -2.000000 2.000000 0.000000 58.994499 14.162800 166.501007 -105.644997 0.180613 0.112492 -0.081382 0.089047 -170.632996 -15.099890 0.609866 14.795373 5.011211 0.859003 1.042701 0.411488 -6.674740 -0.294819 -58.234261 6.692354 7.725530 102.350670 3.312324 -5.025795 -199.077118 -188.620148 -175.367310 
-54.093662 59.609043 104.491776 -5.146580 6.118000 -166.194000 -14.367300 2.187630 -5.952960 15.149200 7.476720 -3.038760 -3.534973 12.424981 -8.042988 3.537250 7.529910 -0.735422 2.000000 -2.000000 0.000000 6.301030 -71.997002 124.910004 38.193802 -0.322298 0.084593 0.044736 -0.005742 -138.973007 -2.000000 2.000000 0.000000 56.496601 16.034100 168.078003 -104.844002 0.182325 0.112959 -0.081839 0.089728 -170.925995 -12.724485 -1.144964 15.360679 1.422307 0.594459 0.636445 3.616582 -6.512001 0.227681 -60.877140 6.505393 8.045120 102.001732 3.370234 -5.062947 -21.573780 8.868940 5.465282 
-54.393948 59.665718 104.320015 -5.148200 6.283350 -166.160004 -14.165300 2.173800 -5.513590 15.313100 6.934040 -2.772350 -4.574432 12.251820 -9.483988 2.897210 6.905160 -1.178770 2.000000 -2.000000 0.000000 15.602200 -73.921402 116.427002 33.808998 -0.328446 0.076131 0.044660 -0.002954 -137.975998 -2.000000 2.000000 0.000000 57.237499 15.119200 166.796005 -105.156998 0.181656 0.112779 -0.081747 0.089592 -170.867004 -12.406929 -1.207851 16.195200 1.176031 0.587630 0.585999 4.388484 -7.460622 0.321261 -62.880947 7.025721 6.794550 99.525421 3.157245 -5.113669 -24.064781 6.722454 5.243715 
-54.659512 59.615604 104.117691 -5.505970 5.715870 -166.487000 -13.889900 2.378880 -5.984400 15.929600 8.157280 -3.039630 -4.436568 11.310107 -9.035728 3.300340 6.582880 -1.077740 2.000000 -2.000000 0.000000 20.020399 -73.779999 111.097000 29.765900 -0.333527 0.067933 0.044646 -0.002024 -137.643997 -2.000000 2.000000 0.000000 57.131001 16.104300 167.315994 -104.620003 0.182806 0.113085 -0.081610 0.089388 -170.779007 -12.536416 -1.914508 17.416679 1.656924 0.500044 0.726753 4.263469 -8.688528 0.278222 -64.217354 7.086138 5.933456 96.043961 2.822305 -5.148289 -25.008308 4.250861 4.385402 
-54.920471 59.612392 103.821465 -5.451530 6.163620 -166.817001 -13.335400 2.395750 -6.174160 16.536900 7.598670 -3.031600 -4.069720 12.691058 -9.375621 3.330130 7.051570 -1.108150 2.000000 -2.000000 0.000000 23.919500 -74.077698 104.458000 26.123301 -0.337599 0.060257 0.044738 0.005823 -134.841995 -2.000000 2.000000 0.000000 56.770199 17.463699 166.479004 -103.584000 0.185030 0.113644 -0.082176 0.090226 -171.139999 -13.155863 -1.368219 18.441923 3.776840 0.830959 0.894526 2.330979 -10.018518 -0.218434 -64.221458 7.738023 4.193615 91.473610 2.384449 -5.147121 -24.603065 2.043295 3.425106 
-55.059772 59.540810 103.535782 -5.621770 5.510640 -167.309006 -13.257100 2.013010 -5.978400 16.652599 7.872550 -3.005220 -5.101950 12.620206 -9.669366 2.877560 6.836810 -1.033270 2.000000 -2.000000 0.000000 23.578100 -75.407097 102.154999 23.584200 -0.340145 0.054760 0.045357 0.005470 -131.473007 -2.000000 2.000000 0.000000 58.380901 16.888201 166.184998 -103.681999 0.184820 0.113593 -0.081503 0.089229 -170.710999 -14.021327 -1.593778 17.516342 6.164876 1.123834 1.046038 1.737332 -9.532621 -0.509435 -63.586151 8.070214 3.765762 87.525925 1.955114 -5.105045 -23.744732 0.829001 2.948112 
-55.203678 59.565353 103.154732 -5.941660 5.109270 -167.639999 -13.276800 2.031700 -5.984210 16.848400 8.020500 -3.007360 -3.465599 12.386142 -9.163030 3.546590 7.031870 -1.247630 2.000000 -2.000000 0.000000 14.906700 -75.459000 111.820000 24.385000 -0.339368 0.056506 0.045114 0.012430 -132.477997 -2.000000 2.000000 0.000000 57.267101 15.646800 166.679993 -103.964996 0.184211 0.113443 -0.082810 0.091151 -171.541000 -14.694139 -1.799633 17.898525 7.931580 1.310138 1.161558 -0.530597 -9.658807 -0.950043 -62.312778 8.095460 3.474308 84.260345 1.627819 -5.031755 -22.840824 0.867242 2.954814 
